<svg xmlns="http://www.w3.org/2000/svg" width="1200" height="420" viewBox="0 0 1200 420" role="img" aria-label="Documentation map">
  <defs>
    <linearGradient id="bg" x1="0" y1="0" x2="1" y2="1">
      <stop offset="0%" stop-color="#f7fbff"/>
      <stop offset="100%" stop-color="#eaf2fb"/>
    </linearGradient>
  </defs>
  <rect width="1200" height="420" fill="url(#bg)"/>

  <text x="600" y="55" font-family="Segoe UI, Arial, sans-serif" font-size="26" font-weight="700" text-anchor="middle" fill="#0b1f3a">
    Documentation Map
  </text>

  <g stroke="#7aa9d8" stroke-width="3">
    <line x1="600" y1="120" x2="320" y2="220"/>
    <line x1="600" y1="120" x2="600" y2="220"/>
    <line x1="600" y1="120" x2="880" y2="220"/>
  </g>

  <rect x="520" y="90" width="160" height="60" rx="12" fill="#0f4c81"/>
  <text x="600" y="125" font-family="Segoe UI, Arial, sans-serif" font-size="16" font-weight="700" text-anchor="middle" fill="#ffffff">
    Book
  </text>

  <rect x="240" y="220" width="160" height="70" rx="12" fill="#ffffff" stroke="#7aa9d8" stroke-width="2"/>
  <text x="320" y="260" font-family="Segoe UI, Arial, sans-serif" font-size="16" font-weight="600" text-anchor="middle" fill="#0b1f3a">
    Architecture
  </text>

  <rect x="520" y="220" width="160" height="70" rx="12" fill="#ffffff" stroke="#7aa9d8" stroke-width="2"/>
  <text x="600" y="260" font-family="Segoe UI, Arial, sans-serif" font-size="16" font-weight="600" text-anchor="middle" fill="#0b1f3a">
    Scenarios
  </text>

  <rect x="800" y="220" width="160" height="70" rx="12" fill="#ffffff" stroke="#7aa9d8" stroke-width="2"/>
  <text x="880" y="260" font-family="Segoe UI, Arial, sans-serif" font-size="16" font-weight="600" text-anchor="middle" fill="#0b1f3a">
    Testing
  </text>

  <g stroke="#7aa9d8" stroke-width="3">
    <line x1="600" y1="290" x2="420" y2="340"/>
    <line x1="600" y1="290" x2="780" y2="340"/>
  </g>

  <rect x="350" y="330" width="160" height="60" rx="12" fill="#ffffff" stroke="#7aa9d8" stroke-width="2"/>
  <text x="430" y="365" font-family="Segoe UI, Arial, sans-serif" font-size="16" font-weight="600" text-anchor="middle" fill="#0b1f3a">
    Modules
  </text>

  <rect x="690" y="330" width="180" height="60" rx="12" fill="#ffffff" stroke="#7aa9d8" stroke-width="2"/>
  <text x="780" y="365" font-family="Segoe UI, Arial, sans-serif" font-size="16" font-weight="600" text-anchor="middle" fill="#0b1f3a">
    Reference
  </text>
</svg>
