<svg xmlns="http://www.w3.org/2000/svg" width="1200" height="520" viewBox="0 0 1200 520" role="img" aria-label="Core networking components overview">
  <defs>
    <linearGradient id="bg" x1="0" y1="0" x2="1" y2="1">
      <stop offset="0%" stop-color="#f7fbff"/>
      <stop offset="100%" stop-color="#eaf2fb"/>
    </linearGradient>
  </defs>
  <rect width="1200" height="520" fill="url(#bg)"/>

  <text x="600" y="55" font-family="Segoe UI, Arial, sans-serif" font-size="26" font-weight="700" text-anchor="middle" fill="#0b1f3a">
    Core Networking Components
  </text>

  <rect x="60" y="90" width="330" height="170" rx="18" fill="#ffffff" stroke="#d7e2f0" stroke-width="2"/>
  <rect x="435" y="90" width="330" height="170" rx="18" fill="#ffffff" stroke="#d7e2f0" stroke-width="2"/>
  <rect x="810" y="90" width="330" height="170" rx="18" fill="#ffffff" stroke="#d7e2f0" stroke-width="2"/>
  <rect x="60" y="290" width="330" height="170" rx="18" fill="#ffffff" stroke="#d7e2f0" stroke-width="2"/>
  <rect x="435" y="290" width="330" height="170" rx="18" fill="#ffffff" stroke="#d7e2f0" stroke-width="2"/>

  <g transform="translate(90 125)" stroke="#0f4c81" stroke-width="3" fill="#00b7c3">
    <line x1="0" y1="28" x2="30" y2="6"/>
    <line x1="30" y1="6" x2="60" y2="28"/>
    <line x1="0" y1="28" x2="60" y2="28"/>
    <circle cx="0" cy="28" r="7"/>
    <circle cx="30" cy="6" r="7"/>
    <circle cx="60" cy="28" r="7"/>
  </g>
  <text x="90" y="220" font-family="Segoe UI, Arial, sans-serif" font-size="18" font-weight="600" fill="#0b1f3a">
    Virtual WAN
  </text>

  <g transform="translate(465 118)" fill="#ffb900" stroke="#0f4c81" stroke-width="3">
    <path d="M30 0 L58 10 L58 30 C58 48 44 62 30 68 C16 62 2 48 2 30 L2 10 Z"/>
  </g>
  <text x="465" y="220" font-family="Segoe UI, Arial, sans-serif" font-size="18" font-weight="600" fill="#0b1f3a">
    Secured Hub
  </text>

  <g transform="translate(840 118)" stroke="#0f4c81" stroke-width="3" fill="#00b7c3">
    <rect x="0" y="12" width="60" height="28" rx="6"/>
    <line x1="10" y1="50" x2="50" y2="50"/>
    <circle cx="10" cy="50" r="6"/>
    <circle cx="50" cy="50" r="6"/>
  </g>
  <text x="840" y="220" font-family="Segoe UI, Arial, sans-serif" font-size="18" font-weight="600" fill="#0b1f3a">
    Route Server
  </text>

  <g transform="translate(90 322)" stroke="#0f4c81" stroke-width="3" fill="#ffb900">
    <rect x="0" y="0" width="70" height="40" rx="8"/>
    <line x1="10" y1="15" x2="60" y2="15"/>
    <line x1="10" y1="25" x2="60" y2="25"/>
  </g>
  <text x="90" y="420" font-family="Segoe UI, Arial, sans-serif" font-size="18" font-weight="600" fill="#0b1f3a">
    VPN Gateway
  </text>

  <g transform="translate(465 322)" stroke="#0f4c81" stroke-width="3" fill="#00b7c3">
    <circle cx="16" cy="20" r="10"/>
    <circle cx="64" cy="20" r="10"/>
    <line x1="26" y1="20" x2="54" y2="20"/>
  </g>
  <text x="465" y="420" font-family="Segoe UI, Arial, sans-serif" font-size="18" font-weight="600" fill="#0b1f3a">
    Spoke VNets
  </text>
</svg>
